<?xml version="1.0" standalone="no"?>
<!DOCTYPE svg PUBLIC "-//W3C//DTD SVG 20010904//EN"
 "http://www.w3.org/TR/2001/REC-SVG-20010904/DTD/svg10.dtd">
<svg version="1.0" xmlns="http://www.w3.org/2000/svg"
 width="500.000000pt" height="500.000000pt" viewBox="0 0 500.000000 500.000000"
 preserveAspectRatio="xMidYMid meet">
<metadata>
Created by potrace 1.14, written by Peter Selinger 2001-2017
</metadata>
<g transform="translate(0.000000,500.000000) scale(0.100000,-0.100000)"
fill="#000000" stroke="none">
<path d="M2257 4635 c-637 -81 -1184 -416 -1535 -941 -336 -501 -443 -1135
-291 -1721 69 -269 179 -501 352 -742 l64 -89 5 -156 c4 -120 8 -160 20 -173
22 -26 32 -137 13 -153 -10 -9 -15 -32 -15 -76 0 -39 -7 -77 -17 -100 -17 -35
-17 -37 3 -53 19 -15 45 -15 330 -4 170 7 395 16 499 21 190 9 190 9 300 -19
167 -43 327 -62 520 -62 255 0 461 34 710 118 l100 33 430 17 c237 10 438 21
448 27 22 11 22 43 -2 76 -14 21 -20 54 -26 145 -5 86 -12 122 -23 134 -13 13
-14 18 -2 37 9 14 13 46 11 98 l-2 77 62 82 c489 641 573 1518 214 2244 -309
626 -904 1063 -1595 1170 -146 22 -438 28 -573 10z m640 -179 c263 -56 512
-159 716 -298 31 -21 62 -36 69 -32 6 4 8 3 5 -3 -4 -6 31 -40 76 -76 98 -78
230 -212 316 -322 65 -82 79 -99 68 -78 -4 6 -2 13 4 15 9 3 9 10 0 27 -11 19
-15 20 -29 9 -14 -11 -15 -11 -9 5 4 10 3 16 -2 12 -17 -10 -21 12 -5 25 11
10 17 11 27 1 7 -7 12 -15 12 -19 1 -10 35 -72 40 -72 2 0 2 7 -1 15 -4 8 -1
15 5 15 6 0 11 -5 11 -12 0 -6 3 -8 7 -4 18 18 176 -272 237 -437 85 -228 116
-393 123 -647 8 -299 -29 -536 -122 -785 -42 -112 -101 -236 -116 -246 -6 -3
-10 -9 -10 -13 3 -17 0 -26 -12 -38 -7 -7 -18 -26 -25 -41 -7 -17 -17 -25 -24
-21 -7 4 -8 3 -4 -5 5 -7 -4 -29 -19 -52 -23 -36 -28 -39 -43 -27 -15 12 -16
11 -4 -4 17 -22 -2 -63 -25 -54 -8 3 -19 6 -25 6 -6 0 -8 13 -6 30 3 16 1 30
-4 30 -14 0 -9 90 8 122 9 16 12 28 7 25 -5 -3 -10 30 -11 74 -2 43 0 79 3 79
12 0 44 -40 36 -45 -5 -3 -7 -14 -4 -25 3 -12 -2 -29 -11 -39 -13 -14 -14 -21
-5 -27 7 -4 10 -3 6 3 -4 6 0 17 9 24 17 14 48 69 39 69 -3 0 3 10 15 22 20
22 28 44 11 33 -5 -3 -12 3 -14 12 -3 10 -5 5 -4 -11 1 -18 -4 -30 -13 -33 -9
-3 -11 -1 -5 4 6 4 8 21 4 38 -4 17 -7 22 -8 13 0 -10 -6 -18 -12 -18 -6 0 -8
-9 -4 -20 8 -24 -10 -27 -19 -4 -4 10 1 25 10 36 10 10 15 21 12 24 -3 3 -15
-7 -27 -22 -11 -15 -21 -23 -21 -18 0 5 9 20 19 34 18 22 21 23 45 11 21 -12
28 -12 43 0 15 11 16 11 6 -1 -15 -16 -17 -30 -5 -30 5 0 16 16 25 35 l17 35
-31 -15 c-30 -16 -31 -16 -24 4 5 16 2 21 -12 21 -11 0 -24 -5 -30 -11 -30
-30 -46 38 -18 75 8 11 15 30 15 42 0 44 -18 47 -231 45 -110 -1 -208 -4 -219
-6 -12 -2 -26 5 -35 18 -9 12 -47 66 -85 120 -41 57 -64 97 -55 97 7 0 16 4
19 8 7 12 -49 128 -82 172 l-26 34 38 -23 c26 -16 41 -20 48 -13 12 12 -8 44
-83 130 -27 30 -47 57 -45 60 3 2 19 -1 37 -7 79 -27 106 -4 69 61 -47 84
-163 239 -192 256 -28 16 -28 17 -7 22 18 5 14 10 -32 34 -30 16 -70 40 -89
53 l-35 23 50 0 c28 -1 79 -7 115 -15 36 -7 66 -12 68 -10 6 6 -134 78 -215
110 -131 54 -210 69 -318 62 l-94 -5 24 44 c13 24 25 48 27 54 2 6 63 -11 143
-39 153 -53 255 -76 384 -86 61 -5 81 -4 76 5 -4 6 -13 9 -20 6 -13 -5 -164
15 -219 29 l-29 8 29 14 c16 7 21 11 12 9 -10 -3 -15 0 -12 7 2 7 -26 28 -66
50 -38 21 -70 40 -70 42 0 2 48 -19 108 -47 199 -93 209 -90 17 6 -112 56
-124 64 -85 58 63 -10 550 -6 561 5 5 5 -23 19 -64 33 -196 65 -564 231 -602
272 -7 7 11 9 60 4 243 -21 338 -27 400 -24 l70 3 -130 45 c-71 25 -141 48
-155 52 -14 3 -43 13 -65 22 l-40 15 56 1 c31 0 58 3 62 6 9 9 472 4 542 -5
40 -6 65 -5 75 2 12 9 13 9 3 -3 -15 -17 -17 -34 -3 -25 6 3 16 3 23 -2 23
-14 37 -11 37 8 0 13 -4 18 -12 13 -7 -5 -8 -3 -3 6 6 10 12 8 27 -9 11 -15
18 -18 18 -9 0 8 12 18 27 24 l28 9 -76 85 c-206 232 -486 424 -763 524 -15 5
-16 9 -6 21 11 13 5 15 -39 15 -29 0 -96 11 -149 24 -336 85 -684 80 -1014
-15 -87 -25 -106 -34 -101 -48 4 -12 3 -13 -5 -2 -6 8 -18 11 -31 6 -24 -7
-24 -8 -10 33 10 29 19 34 93 57 226 69 348 84 631 80 201 -3 245 -6 352 -29z
m-1086 -103 c-26 -46 -54 -66 -156 -116 -205 -101 -370 -223 -536 -394 -371
-382 -556 -872 -536 -1418 10 -283 69 -519 193 -770 44 -89 54 -120 54 -160
l0 -50 -20 25 c-39 48 -150 286 -189 405 -71 212 -92 340 -98 580 -4 163 -2
235 11 320 30 206 90 409 167 570 25 51 27 60 14 68 -19 10 -10 27 14 27 12 0
34 26 64 79 208 357 558 660 957 827 67 28 73 29 61 7z m1329 -18 c0 -3 -71
-52 -157 -109 -103 -67 -181 -111 -223 -124 -37 -13 -50 -19 -30 -16 149 22
209 26 310 21 114 -6 258 -27 335 -49 37 -11 32 -13 -87 -19 -146 -8 -227 -23
-282 -51 -22 -11 -56 -26 -75 -33 -33 -12 -27 -13 74 -13 84 0 124 -5 170 -20
108 -36 539 -193 544 -198 9 -9 -443 1 -461 10 -13 6 -18 4 -18 -8 0 -19 -23
-20 -158 -5 -117 12 -212 35 -397 93 l-140 45 75 35 c103 48 107 52 52 53 -38
0 -41 -1 -17 -6 29 -7 29 -7 9 -18 -11 -7 -90 -32 -175 -57 -184 -53 -301
-101 -410 -167 -90 -55 -101 -59 -73 -27 l19 22 -37 -23 c-21 -12 -38 -20 -38
-18 0 3 16 28 35 57 39 58 50 105 12 55 -49 -66 -127 -153 -153 -169 l-27 -18
8 48 c4 27 13 64 20 82 8 17 12 32 9 32 -2 0 -24 -27 -49 -61 -47 -64 -51 -67
-35 -25 9 24 2 34 -14 19 -14 -15 -35 -11 -29 5 2 10 -9 2 -26 -16 -27 -28
-31 -30 -31 -12 0 11 14 48 31 81 17 34 28 63 25 66 -2 3 -21 -19 -41 -49 -33
-47 -36 -49 -31 -23 5 28 4 27 -13 -7 -10 -21 -21 -41 -24 -45 -8 -7 0 43 13
92 18 68 21 87 10 80 -20 -12 -58 -81 -76 -138 -17 -55 -34 -75 -34 -39 0 9
18 87 40 172 l39 155 1 -70 c2 -77 6 -71 34 48 14 64 104 272 113 263 2 -2 -3
-28 -11 -57 -9 -30 -20 -97 -26 -150 -5 -53 -12 -105 -16 -115 -8 -23 80 73
119 129 39 58 33 22 -12 -68 -21 -42 -33 -71 -26 -63 6 7 35 41 64 76 37 43
91 88 173 143 111 74 245 149 267 149 5 0 -27 -35 -71 -77 -114 -111 -115
-120 -11 -71 90 41 442 163 449 155 3 -2 -45 -41 -106 -87 -60 -45 -110 -83
-110 -85 0 -2 17 5 38 16 62 32 463 176 522 188 30 6 64 13 75 15 32 6 65 6
65 1z m-2030 -359 c0 -11 -19 -15 -25 -6 -3 5 1 10 9 10 9 0 16 -2 16 -4z
m2235 -6 c-3 -5 -10 -10 -16 -10 -5 0 -9 5 -9 10 0 6 7 10 16 10 8 0 12 -4 9
-10z m65 -30 c0 -13 -33 -21 -43 -11 -16 16 12 44 29 30 8 -6 14 -15 14 -19z
m-740 -140 l135 -40 -180 6 c-158 5 -182 4 -194 -10 -27 -32 -6 -46 71 -47
l73 -1 -40 -13 c-54 -18 -103 -18 -121 0 -9 8 -12 15 -8 15 3 0 0 8 -7 17 -12
14 -12 16 1 9 8 -4 5 1 -6 11 l-21 18 56 37 c31 21 67 38 81 38 14 0 86 -18
160 -40z m1390 10 c0 -5 -4 -10 -10 -10 -5 0 -10 5 -10 10 0 6 5 10 10 10 6 0
10 -4 10 -10z m-302 -37 c-7 -9 -3 -16 16 -24 47 -22 27 -28 -26 -8 -64 23
-88 44 -40 35 18 -3 31 -2 28 2 -2 4 4 8 14 8 14 0 16 -4 8 -13z m335 -28 c-3
-9 -8 -14 -10 -11 -3 3 -2 9 2 15 9 16 15 13 8 -4z m-1052 -49 l74 -26 -70 4
c-46 2 -93 13 -135 30 l-65 26 61 -4 c33 -3 94 -17 135 -30z m1099 -16 c0 -5
-2 -10 -4 -10 -3 0 -8 5 -11 10 -3 6 -1 10 4 10 6 0 11 -4 11 -10z m-1326 -8
c9 -5 -40 -17 -214 -53 -30 -6 -74 -8 -98 -5 -42 6 -108 33 -100 42 16 15 389
30 412 16z m-466 -17 c13 -9 28 -39 38 -71 21 -72 13 -104 -9 -38 -25 72 -45
87 -123 92 -60 4 -73 10 -57 25 13 14 128 7 151 -8z m933 -40 c150 -50 144
-53 -56 -35 -116 10 -318 57 -309 71 3 5 56 9 118 9 107 0 120 -2 247 -45z
m-1216 25 c-3 -5 -11 -10 -16 -10 -23 0 -166 -73 -193 -98 -44 -42 -56 -81
-56 -184 0 -162 25 -204 147 -252 51 -20 59 -26 33 -22 -19 2 -44 7 -55 11
-14 4 -13 2 5 -9 l25 -16 -30 6 c-46 10 -111 51 -139 87 -39 51 -55 99 -60
179 l-5 73 10 -65 c5 -36 14 -67 20 -68 5 -2 7 -8 3 -13 -3 -5 1 -17 8 -28 11
-15 13 1 13 108 0 105 3 131 18 154 10 15 15 32 12 36 -8 14 75 58 171 91 103
34 97 33 89 20z m666 -76 c124 -31 369 -136 369 -157 0 -19 -232 18 -312 50
-41 16 -50 33 -19 33 32 0 33 16 3 36 -22 15 -49 19 -147 19 -116 1 -198 15
-210 35 -4 6 35 10 103 10 85 0 132 -6 213 -26z m-1160 -3 c-14 -10 -19 -21
-13 -24 5 -4 15 0 22 8 9 10 32 15 77 15 36 0 63 -3 61 -7 -41 -85 -32 -79
-180 -128 -76 -25 -143 -43 -150 -39 -6 4 -8 3 -4 -4 8 -13 -59 -36 -75 -26
-7 4 -9 3 -6 -3 4 -6 -1 -13 -11 -16 -9 -2 -25 -8 -36 -12 -17 -8 -17 -6 -2
23 8 16 21 32 28 35 7 2 0 4 -15 4 -21 0 -36 -10 -61 -41 -38 -47 -60 -85 -53
-93 3 -3 13 10 23 29 23 45 66 100 72 93 3 -3 -9 -25 -27 -50 l-33 -45 49 1
c40 2 64 -6 130 -40 122 -63 132 -79 14 -20 -96 47 -109 51 -153 45 -26 -4
-64 -16 -83 -27 -19 -11 -40 -17 -46 -13 -8 4 -9 3 -5 -5 5 -8 -3 -16 -23 -24
-17 -6 -31 -15 -31 -20 0 -4 -5 -5 -10 -2 -6 4 -24 10 -41 15 -38 11 -50 -7
-83 -125 -25 -94 -34 -95 -15 -3 28 138 34 150 107 204 151 116 293 197 477
275 99 42 134 50 96 20z m1391 -6 c33 -14 75 -35 92 -48 57 -44 337 -167 446
-197 43 -12 44 -13 20 -23 -53 -22 -437 -2 -480 24 -10 6 -2 8 25 4 22 -3 -7
9 -65 26 -121 36 -144 49 -67 38 30 -4 99 -10 152 -14 80 -6 97 -5 93 6 -5 15
-224 137 -303 169 -32 13 -39 19 -20 15 l30 -5 -25 15 -25 14 33 1 c18 0 60
-11 94 -25z m-852 -35 c-57 -50 -98 -66 -107 -43 -8 20 20 41 86 65 68 24 71
21 21 -22z m400 -14 c0 -31 -46 -43 -60 -15 -13 24 -13 27 8 32 41 11 52 7 52
-17z m-626 -21 c-15 -37 -18 -66 -6 -63 4 1 17 -3 30 -10 20 -11 34 -9 104 18
45 17 103 32 129 33 26 1 47 4 47 7 -1 18 4 23 11 11 7 -11 14 -11 41 3 46 22
51 20 13 -5 -18 -12 -33 -26 -33 -33 0 -7 16 -27 35 -46 30 -29 35 -40 35 -81
0 -50 -13 -91 -39 -123 -19 -23 -10 -19 57 27 24 16 46 27 48 24 3 -3 -11 -15
-30 -27 -41 -25 -45 -30 -15 -25 39 8 -6 -30 -74 -61 -56 -26 -72 -29 -167
-29 -93 0 -110 3 -149 25 -63 35 -82 66 -86 136 -2 32 0 64 5 69 4 6 10 38 12
71 2 35 12 73 21 88 24 36 29 33 11 -9z m818 -58 c23 -36 -19 -37 -53 -1 l-24
27 35 -7 c18 -3 38 -12 42 -19z m-98 -6 c33 -37 -4 -55 -50 -25 -23 16 -23 17
-7 30 25 18 37 17 57 -5z m171 -54 c33 -58 32 -70 -3 -21 -40 56 -44 64 -33
64 6 0 22 -20 36 -43z m-1161 -13 c3 -25 4 -50 1 -55 -9 -14 -69 -21 -95 -10
-22 8 -18 10 28 10 50 1 52 2 52 29 0 40 -14 56 -41 49 -23 -6 -23 -5 -5 8 37
28 53 19 60 -31z m1040 15 c13 -6 32 -27 42 -45 10 -19 26 -34 35 -34 25 0 52
-35 45 -58 -16 -50 -72 -52 -82 -3 -4 19 -12 27 -27 28 -20 2 -20 1 -4 -8 23
-14 21 -35 -5 -53 -20 -14 -24 -14 -44 5 -17 16 -21 30 -19 65 1 24 8 52 16
62 8 10 4 7 -8 -6 -45 -46 -23 -147 36 -172 26 -10 39 -10 77 3 l45 15 -23
-27 c-32 -36 -40 -41 -69 -41 -29 0 -73 30 -91 63 -33 63 -27 133 18 187 30
35 26 33 58 19z m-121 -18 c24 -9 25 -13 16 -40 -10 -27 -13 -29 -47 -24 -20
3 -39 8 -41 10 -8 6 29 74 38 69 4 -3 20 -10 34 -15z m356 -37 c116 -99 153
-136 144 -144 -4 -4 -49 8 -100 28 -90 36 -91 37 -97 75 -4 22 -13 52 -22 68
-23 45 0 36 75 -27z m-82 -36 c-3 -8 -6 -5 -6 6 -1 11 2 17 5 13 3 -3 4 -12 1
-19z m-1021 -154 c2 -5 -13 -21 -33 -36 -40 -31 -109 -38 -132 -15 -9 9 -69
12 -229 12 -224 0 -285 -8 -364 -45 -21 -10 -38 -14 -38 -9 0 6 24 21 53 34
89 41 353 57 553 33 l102 -11 33 26 c34 26 50 30 55 11z m1349 -74 c50 -18
110 -43 135 -56 l45 -24 -82 7 c-103 7 -106 -3 -18 -59 36 -23 61 -45 55 -48
-5 -3 15 -24 45 -46 61 -46 121 -124 102 -136 -7 -4 -1 -11 16 -19 28 -13 88
-95 102 -138 7 -23 6 -23 -31 -17 -22 4 -58 16 -81 26 -24 10 -43 16 -43 13 0
-7 51 -73 113 -146 27 -32 47 -60 44 -63 -10 -11 -116 70 -243 186 -33 30 -19
15 31 -35 50 -49 110 -115 134 -144 47 -61 104 -166 98 -184 -2 -6 -21 6 -44
26 -22 20 -43 37 -47 37 -4 0 21 -37 55 -81 75 -98 159 -220 159 -229 0 -11
-78 -21 -160 -20 -70 1 -77 3 -110 34 -37 34 -146 116 -154 116 -3 0 -2 -8 1
-17 14 -36 -99 68 -172 157 -25 31 -27 32 -21 10 11 -36 -9 -9 -44 63 l-28 58
-10 -31 c-13 -36 -31 -38 -60 -7 -26 28 -38 58 -47 126 -7 55 -7 55 -22 28
-15 -30 -17 -31 -43 -17 -29 16 -171 180 -165 190 4 6 17 10 31 10 39 0 28 18
-16 25 -44 7 -45 25 -2 25 15 0 33 4 41 9 11 7 -3 13 -47 22 -34 7 -62 17 -62
21 0 4 26 8 57 8 l56 0 -23 26 c-31 32 -16 44 60 44 l55 1 -24 19 c-13 11 -45
28 -72 37 -27 10 -49 21 -49 26 0 4 24 19 54 33 39 18 62 23 83 18 44 -11 110
-43 129 -62 13 -13 16 -13 12 -2 -2 8 -24 26 -49 40 l-44 24 58 14 c32 8 55
18 50 22 -13 13 -121 30 -197 31 -39 0 -80 4 -91 9 -17 7 -14 11 26 29 90 40
148 51 259 47 87 -3 120 -9 195 -36z m-1659 -5 c68 -18 85 -30 29 -21 -22 3
-119 9 -215 13 -196 7 -195 20 2 22 83 1 147 -4 184 -14z m157 -158 c9 -18 17
-61 18 -95 3 -70 -12 -100 -71 -139 -53 -37 -69 -28 -28 15 62 62 96 168 69
210 -6 10 -11 5 -20 -17 -13 -31 -48 -68 -56 -59 -3 3 0 19 6 37 6 18 9 58 7
90 l-4 58 32 -34 c18 -18 39 -48 47 -66z m-301 68 c0 -5 -5 -11 -11 -13 -6 -2
-11 4 -11 13 0 9 5 15 11 13 6 -2 11 -8 11 -13z m1283 -156 l30 -14 -55 -2
c-88 -5 -120 -12 -120 -29 0 -8 -4 -13 -8 -10 -4 2 -8 -11 -8 -30 0 -23 -8
-42 -23 -57 l-22 -22 5 25 c14 72 16 148 4 154 -7 3 28 4 77 3 50 -2 103 -10
120 -18z m-1925 -19 c0 -5 -4 -10 -10 -10 -5 0 -10 5 -10 10 0 6 5 10 10 10 6
0 10 -4 10 -10z m1829 -115 c26 -79 27 -95 5 -74 -8 9 -18 36 -21 60 -3 24
-12 48 -19 52 -18 10 -18 27 0 27 9 0 22 -25 35 -65z m-149 -273 c34 -69 74
-144 90 -168 34 -48 75 -138 60 -129 -6 3 -10 1 -10 -5 0 -6 -4 -8 -10 -5 -5
3 -10 11 -10 16 0 6 5 7 12 3 7 -4 8 -3 4 5 -4 6 -12 9 -17 6 -11 -8 -92 117
-130 200 -38 84 -75 215 -83 290 l-6 60 20 -75 c11 -41 47 -130 80 -198z m212
156 c-7 -28 -22 -2 -21 37 l0 30 13 -24 c7 -13 11 -33 8 -43z m-954 27 c-3
-14 -1 -25 4 -25 5 0 -13 -22 -41 -49 -42 -41 -51 -56 -51 -84 0 -18 3 -37 7
-41 4 -4 9 -28 10 -54 4 -51 22 -117 30 -108 7 7 55 -68 75 -119 36 -88 70
-155 77 -150 5 2 13 -14 20 -35 11 -39 34 -53 44 -27 3 7 6 5 6 -5 1 -13 -7
-18 -24 -18 -14 0 -25 5 -25 11 0 6 -7 8 -15 5 -9 -3 -23 -2 -33 4 -9 5 -29
11 -45 15 -28 6 -67 37 -67 55 0 5 19 3 41 -5 51 -18 46 -19 52 5 3 10 2 19
-2 18 -3 -1 -22 5 -41 14 -19 9 -46 20 -60 26 -19 7 -30 25 -48 78 -20 62 -20
70 -6 81 22 16 14 57 -13 61 -17 3 -25 17 -42 81 -12 42 -21 85 -21 95 0 33
34 76 97 122 35 26 63 53 63 60 0 8 3 14 6 14 4 0 4 -11 2 -25z m37 -4 c-3 -6
-11 -11 -17 -11 -6 0 -6 6 2 15 14 17 26 13 15 -4z m81 -140 l102 -6 -16 -39
-15 -39 -120 6 c-66 3 -124 10 -128 14 -5 5 3 26 17 47 19 28 30 36 42 30 10
-4 63 -10 118 -13z m420 -6 c-8 -30 11 -100 31 -116 15 -13 18 -43 3 -34 -7 4
-9 -2 -6 -17 43 -193 31 -207 -36 -39 l-60 153 -29 -6 c-16 -3 -29 -2 -29 3 0
14 50 55 83 67 47 17 50 16 43 -11z m-272 -230 c21 -52 46 -101 56 -108 26
-18 70 -112 70 -150 0 -18 5 -38 11 -44 20 -20 -1 -33 -55 -33 -50 0 -53 2
-69 35 -35 74 -8 89 43 25 18 -23 35 -39 37 -36 3 3 -8 29 -24 58 -17 29 -56
114 -88 188 -31 74 -60 139 -63 144 -3 5 2 7 11 3 10 -3 17 -2 17 3 0 32 21
-2 54 -85z m-127 43 c-3 -8 -6 -5 -6 6 -1 11 2 17 5 13 3 -3 4 -12 1 -19z
m1379 -209 c46 -34 84 -64 84 -66 0 -16 -150 98 -223 169 l-62 60 58 -51 c32
-28 96 -78 143 -112z m-859 -51 c-14 -34 -34 -55 -42 -46 -2 2 6 24 18 50 25
52 46 49 24 -4z m-921 -23 c12 -18 12 -28 3 -48 -17 -37 -35 -40 -75 -14 -26
17 -34 28 -32 47 6 49 75 59 104 15z m415 -9 c10 -20 9 -20 -5 -2 -9 10 -22
16 -31 13 -15 -6 -21 4 -9 16 10 10 34 -4 45 -27z m-571 4 c0 -5 -2 -10 -4
-10 -3 0 -8 5 -11 10 -3 6 -1 10 4 10 6 0 11 -4 11 -10z m2100 -31 l25 -20
-32 16 c-18 8 -33 18 -33 20 0 10 16 4 40 -16z m-2762 -23 c3 -12 -1 -17 -10
-14 -7 3 -15 13 -16 22 -3 12 1 17 10 14 7 -3 15 -13 16 -22z m734 -55 c32
-28 33 -33 36 -113 4 -84 4 -84 -25 -97 l-28 -14 25 -6 c23 -6 25 -12 28 -70
l3 -63 -78 4 -78 3 -3 38 c-2 20 -8 37 -13 37 -16 0 -119 -61 -119 -71 0 -5
-33 -9 -74 -9 l-73 0 -7 46 c-9 67 -8 224 2 224 5 0 17 7 28 15 18 15 18 15
-8 9 -26 -6 -28 -4 -28 24 0 16 -7 36 -17 43 -15 13 -12 15 23 20 21 3 114 7
206 8 l168 1 32 -29z m2838 21 c0 -4 -4 -12 -9 -17 -6 -6 -11 -34 -13 -64 l-3
-54 -77 -33 -78 -33 0 44 c0 69 -5 75 -65 75 -30 0 -57 -5 -60 -10 -4 -6 -3
-35 0 -65 7 -54 8 -55 41 -55 18 0 36 5 39 10 15 25 25 5 25 -50 l0 -60 -30 0
c-22 0 -30 5 -30 18 -1 16 -2 16 -13 0 -10 -13 -32 -17 -98 -19 l-84 -2 -8 48
c-4 26 -7 71 -5 99 3 42 7 53 28 63 l25 13 -27 0 c-24 0 -28 4 -28 29 0 17 -4
33 -10 36 -26 16 -3 24 73 28 179 7 407 7 407 -1z m-551 -17 c38 -19 51 -60
51 -161 l0 -83 -32 -18 -33 -18 33 -3 c56 -6 24 -22 -43 -22 -75 0 -75 0 -75
115 0 100 -13 120 -68 111 -20 -3 -39 -11 -44 -18 -4 -7 -8 -57 -8 -110 l0
-98 -74 0 c-86 0 -86 -1 -86 121 0 73 1 75 28 86 l27 11 -27 1 c-34 1 -37 27
-9 62 16 20 31 25 98 30 153 11 233 10 262 -6z m-512 -23 c-11 -12 -17 -36
-17 -65 l0 -46 -72 -41 c-40 -22 -79 -40 -85 -40 -9 0 -13 15 -13 43 0 38 4
46 26 56 41 18 23 23 -60 15 l-77 -7 3 -45 3 -46 120 -54 c66 -29 124 -57 129
-63 6 -5 -35 -9 -110 -9 -115 1 -122 2 -209 38 l-90 38 -3 57 c-3 52 -1 57 25
71 l28 15 -26 1 c-21 0 -28 6 -31 28 -3 15 -8 35 -13 44 -7 19 -20 18 379 26
105 2 108 1 93 -16z m-534 -36 c22 -22 36 -47 40 -72 12 -71 8 -91 -20 -113
l-28 -20 28 -1 c20 0 27 -5 27 -19 0 -46 -9 -51 -85 -51 l-74 0 -5 53 c-4 28
-7 77 -9 107 l-2 55 -57 3 -58 3 0 -111 0 -111 -77 3 -78 3 -3 92 c-3 92 -3
92 25 107 l28 15 -32 1 c-30 0 -33 3 -33 29 0 17 -5 33 -10 36 -30 19 19 25
195 25 l194 0 34 -34z m-463 4 c-7 -12 -21 -20 -38 -20 l-27 -1 28 -15 c26
-14 27 -18 27 -94 0 -44 -4 -80 -8 -80 -13 0 -136 51 -149 62 -6 5 -13 24 -15
41 -3 32 -4 32 -61 35 l-58 3 1 -68 c1 -37 1 -88 1 -113 l-1 -45 -73 0 c-85 0
-84 -1 -86 118 -1 78 -1 78 22 66 l22 -12 -21 24 c-12 13 -24 35 -26 49 -3 14
-9 33 -13 42 -8 20 26 22 318 26 165 2 168 2 157 -18z m-518 -2 c-7 -7 -12
-20 -12 -30 0 -10 -7 -21 -16 -25 -15 -5 -15 -7 0 -15 13 -7 16 -28 16 -118
l0 -108 -79 -4 -79 -3 -6 59 c-3 32 -6 94 -6 136 0 59 -4 81 -16 91 -14 12
-14 14 3 20 10 4 61 8 113 8 73 1 91 -2 82 -11z m-52 -555 c0 -5 -7 -17 -15
-27 -10 -14 -15 -45 -15 -97 l0 -77 -102 -55 c-57 -31 -103 -55 -104 -54 -1 1
-4 35 -8 74 l-7 73 33 20 33 20 -100 -2 -100 -3 -3 -65 c-1 -36 1 -70 5 -76 5
-6 69 -36 144 -67 243 -101 229 -93 229 -132 0 -35 0 -35 -47 -36 -27 0 -87
-3 -134 -5 l-87 -5 -156 61 -156 61 0 33 c0 18 -3 67 -6 109 l-7 75 39 21 39
20 -37 1 c-35 0 -38 2 -38 28 0 15 -7 38 -16 50 -9 13 -14 25 -12 27 2 3 137
11 299 18 162 8 302 15 312 16 9 0 17 -2 17 -6z m2639 -9 c-9 -11 -16 -56 -19
-132 l-5 -114 -150 -77 -150 -77 -131 -3 -131 -2 -6 68 c-4 37 -7 93 -7 124 0
53 2 56 33 72 l32 16 -31 0 c-29 1 -32 5 -39 39 -4 20 -14 45 -22 54 -14 16
-13 18 8 22 23 5 384 21 553 24 72 2 77 1 65 -14z m-673 -36 c-11 -15 -16 -45
-16 -93 l0 -71 -97 -42 c-54 -23 -101 -42 -105 -42 -5 0 -8 29 -8 64 0 83 -9
90 -96 81 l-67 -8 7 -123 c4 -68 5 -133 1 -144 -6 -18 -15 -20 -100 -20 -52 0
-96 3 -98 8 -3 4 -8 59 -12 123 l-7 116 31 13 c45 18 48 30 6 23 -34 -5 -35
-5 -35 26 0 17 -7 43 -16 57 -9 13 -15 26 -13 28 5 5 387 22 532 24 l108 2
-15 -22z m-665 -31 c-6 -6 -11 -27 -11 -47 0 -27 -8 -43 -30 -65 -35 -33 -33
-44 3 -20 l25 16 7 -103 c11 -162 17 -152 -94 -156 -101 -3 -110 1 -111 48 -1
24 -2 23 -15 -7 -18 -42 -57 -52 -218 -55 -70 -2 -127 -2 -127 -1 0 3 241 138
298 167 l52 26 0 50 0 50 -64 0 c-75 0 -99 -16 -93 -59 4 -26 -1 -31 -98 -79
-57 -28 -106 -48 -109 -45 -3 4 -6 48 -6 99 l0 92 33 21 32 21 -36 0 c-23 0
-42 7 -54 20 -10 11 -16 22 -14 24 8 9 634 31 638 23 2 -5 -2 -14 -8 -20z
m-661 -10 c0 -7 -6 -19 -12 -26 -10 -9 -12 -51 -9 -160 2 -120 0 -154 -13
-178 l-15 -31 -103 -1 c-57 -1 -171 -4 -254 -7 l-151 -6 -6 63 c-4 34 -7 86
-7 115 0 52 1 54 38 73 l37 20 -42 1 c-42 0 -43 0 -43 35 0 20 -7 47 -16 60
-9 14 -15 25 -13 26 2 0 130 6 284 13 154 7 290 14 303 15 12 0 22 -5 22 -12z
m1990 -284 c-1 -22 -20 -34 -51 -31 l-34 3 30 17 c32 18 55 23 55 11z"/>
<path d="M4003 3682 c-28 -4 -31 -22 -4 -22 23 0 103 -78 94 -93 -3 -6 -1 -7
5 -3 8 5 -2 26 -30 64 -22 31 -42 57 -42 57 -1 1 -11 -1 -23 -3z"/>
<path d="M4110 3553 c0 -6 8 -17 18 -24 16 -13 16 -13 2 6 -8 11 -16 22 -17
24 -2 2 -3 0 -3 -6z"/>
<path d="M3340 3120 c8 -5 20 -10 25 -10 6 0 3 5 -5 10 -8 5 -19 10 -25 10 -5
0 -3 -5 5 -10z"/>
<path d="M4326 1915 c-4 -12 -15 -15 -51 -10 -35 4 -45 2 -45 -9 0 -8 -4 -18
-10 -21 -6 -4 -7 1 -4 12 3 10 -4 2 -16 -17 -23 -35 -36 -85 -20 -75 5 3 7 12
3 20 -3 8 0 15 6 15 6 0 11 8 11 18 0 14 2 15 10 2 5 -8 10 -11 10 -6 0 5 7 2
16 -5 14 -11 16 -10 12 11 -2 14 3 25 12 27 12 4 12 2 2 -5 -10 -7 -10 -11 3
-22 13 -11 15 -9 15 9 0 19 10 26 32 22 9 -1 31 39 25 45 -2 3 -7 -2 -11 -11z"/>
<path d="M4400 1891 c0 -5 7 -12 16 -15 14 -5 15 -4 4 9 -14 17 -20 19 -20 6z"/>
<path d="M4299 1878 c-3 -8 -6 -68 -4 -68 9 0 22 60 14 65 -5 4 -9 5 -10 3z"/>
<path d="M4341 1733 c-1 -6 -4 -20 -7 -30 -5 -17 -5 -17 6 0 6 10 9 23 6 30
-3 9 -5 9 -5 0z"/>
<path d="M4300 1611 c0 -7 -5 -9 -12 -5 -7 4 -8 3 -4 -4 4 -7 2 -12 -4 -12 -6
0 -9 -4 -6 -9 4 -5 1 -11 -6 -13 -8 -3 -8 -9 1 -24 7 -10 10 -12 8 -4 -2 8 5
28 16 43 10 16 16 31 13 34 -3 4 -6 1 -6 -6z"/>
<path d="M4230 1511 c-7 -15 -7 -22 2 -27 7 -4 10 -4 6 1 -4 4 -3 16 3 26 5
11 7 19 5 19 -3 0 -10 -9 -16 -19z"/>
<path d="M4216 1466 c5 -13 4 -17 -4 -12 -14 8 -62 -65 -67 -103 -2 -14 -2
-20 1 -13 3 6 10 9 16 6 6 -4 8 2 6 12 -2 11 6 27 17 37 11 10 14 16 8 12 -22
-11 -14 5 15 30 22 19 25 26 14 37 -11 11 -12 10 -6 -6z"/>
<path d="M2224 3918 l-19 -23 23 19 c21 18 27 26 19 26 -2 0 -12 -10 -23 -22z"/>
<path d="M2438 3913 c6 -2 18 -2 25 0 6 3 1 5 -13 5 -14 0 -19 -2 -12 -5z"/>
<path d="M2365 3900 c-25 -11 1 -11 35 0 20 6 21 8 5 8 -11 0 -29 -3 -40 -8z"/>
<path d="M2149 3863 l-24 -28 28 24 c25 23 32 31 24 31 -2 0 -14 -12 -28 -27z"/>
<path d="M1119 3313 c-13 -16 -12 -17 4 -4 9 7 17 15 17 17 0 8 -8 3 -21 -13z"/>
<path d="M2613 3265 c0 -7 6 -11 14 -8 7 3 13 6 13 8 0 2 -6 5 -13 8 -8 3 -14
-1 -14 -8z"/>
<path d="M1494 2323 c3 -10 8 -30 12 -45 4 -19 13 -28 26 -28 14 0 18 5 14 16
-3 9 -6 22 -6 29 0 7 -12 20 -26 30 -25 16 -26 16 -20 -2z"/>
<path d="M1553 2163 c-17 -6 -16 -26 4 -68 26 -54 44 -46 27 13 -19 62 -17 60
-31 55z"/>
<path d="M1606 2147 c3 -10 9 -15 12 -12 3 3 0 11 -7 18 -10 9 -11 8 -5 -6z"/>
<path d="M1880 2165 c0 -5 5 -17 10 -25 5 -8 10 -10 10 -5 0 6 -5 17 -10 25
-5 8 -10 11 -10 5z"/>
<path d="M1911 2093 c0 -5 20 -46 44 -93 43 -83 44 -84 44 -47 1 46 -29 108
-63 131 -14 9 -26 13 -25 9z"/>
<path d="M1910 1928 c1 -18 29 -66 30 -49 0 11 3 11 17 0 12 -9 10 -3 -5 18
-27 38 -42 49 -42 31z"/>
<path d="M1030 1688 c0 -90 1 -92 18 -72 9 12 36 31 60 43 41 21 42 23 42 71
l0 50 -60 0 -60 0 0 -92z"/>
<path d="M3798 1113 l-58 -4 0 -107 c0 -73 3 -102 10 -92 5 8 10 22 10 30 0 8
32 32 70 53 58 31 70 42 70 63 0 32 -17 65 -33 62 -7 -1 -38 -3 -69 -5z"/>
<path d="M1770 986 c0 -18 3 -61 6 -95 l7 -61 57 0 c83 0 95 13 92 96 -2 38
-8 74 -14 81 -7 8 -36 13 -79 13 l-69 0 0 -34z"/>
</g>
</svg>
